<svg data-name="Layer 1" xmlns="http://www.w3.org/2000/svg" width="785.4" height="153.2" viewBox="0 0 785.4 153.2"><path d="M195.4 126.5l-.2-.3a25.5 25.5 0 0 0-20.3-28.3l-2.1-.3h-.3a56.3 56.3 0 0 0-16.6-11.1 4.4 4.4 0 0 0 .2-1l.3-.1c7.3-3.2 11.6-8.5 12.5-15.5a23.2 23.2 0 0 0-4-15.9v-.2c.8-7.4-.3-13.9-3.2-19.3a22.6 22.6 0 0 0-10.3-9.8h-.1c-1.2-4-6.3-7-11.7-6.9-4.3.1-9 2.1-10.7 5.4A30.6 30.6 0 0 0 109 47.1a20.5 20.5 0 0 0-2.8 30.6 97.2 97.2 0 0 0-18.8 2l-.2.1c-6.1-4.3-14-6-21-4.1a3 3 0 0 0-.8.4 40.2 40.2 0 0 0-6.4-1.3h-.4a20.9 20.9 0 0 0-5.2-8.7l-.4-.4c-.4-2.4-1-5-1.3-6a17.6 17.6 0 0 0-5-8.1 19.7 19.7 0 0 0-5.5-3.9 18.3 18.3 0 0 0 .6-1.9v-.5c0-.1.9-7.5 1.8-11.9v-.2l2.5-15.5v-.1a5 5 0 0 0-1.3-3.7 6.5 6.5 0 0 0-5-2 7.7 7.7 0 0 0-6.5 3.8 20.7 20.7 0 0 0-2 4.6l-8.2-16a.3.3 0 0 0-.1-.2 6.2 6.2 0 0 0-5.3-3 5.9 5.9 0 0 0-2.3.4 6.1 6.1 0 0 0-4-1.5A6.2 6.2 0 0 0 9 .4a6.2 6.2 0 0 0-4.2 6.1 6 6 0 0 0-4 4.6 6.4 6.4 0 0 0 .3 3.3v.4l-.1.3C-.4 17.4-1.2 21.8 4.5 36a.1.1 0 0 0 0 .1l.5 1A122 122 0 0 0 10.6 49a42.8 42.8 0 0 0 4 6.1 21.2 21.2 0 0 0-3.1 7.2 22 22 0 0 0 1 11.7 26.2 26.2 0 0 0 2.2 4.8l-.1.4a22.8 22.8 0 0 0 9.3 21.2 39.6 39.6 0 0 0 3.4 2.2 18.3 18.3 0 0 0 6 8.3 21.4 21.4 0 0 0 6.8 3.7v.1a20.3 20.3 0 0 0 11.4 7.7l3.8.8.2.2a21.4 21.4 0 0 0 9 5.1 22.9 22.9 0 0 0 1 11h133.8a28.2 28.2 0 0 0-4-13z"/><path fill="#fce500" d="M664.8 139.2H33.2l-5.1 14h631.6l5-14z"/><path d="M404.8 56.2c-16.3 3.3-38.5 15.4-38.3 37.3 0 12.6 15.4 19.7 32.9 19.2a146.9 146.9 0 0 0 20.4-2.3l6.5-16.9c-8.6 1.4-17 3.4-23.3.8-11.7-4.7-4.5-16.8 3.8-20.6a32.8 32.8 0 0 1 14.5-3.1c2.5 0 8.5.2 10.8 5.5l8.2-19.6a84.3 84.3 0 0 0-35.5-.3zm88.7-.6L486 75.7h-13.6l7.4-20.1H454l-20.5 55.7h25.7l7-18.9h13.6l-7 18.9h25.7L519 55.6zm-153.2 0l-20.5 55.7h27l20.5-55.7zm-53.7 0l-19.7 29.9 1.6-19.4c.2-2.9-.1-10.5-7.1-10.5H230l-20.5 55.7H234L249 71l-3.1 40.3h21.7l26.7-39.6-14.6 39.6h24.6l20.5-55.7zm476.3 0l-14.1 38.2 1.4-27.8c.2-3.6-.6-6.4-2.3-8.2a7.4 7.4 0 0 0-5-2.2h-31.3L691 111.4h22.8l14.5-39.5-1.7 39.5h38.2l20.5-55.7-22.5-.1zm-94.3 0L648 111.4h27l20.5-55.7-27-.1zM554.4 70.2h30.8l5.4-14.6h-56.3l-20.5 55.7h56.9l5.5-15h-31.4l2.3-6.2h29.3l5-13.7H552zm77.4-14.6h-26.3L585 111.3h52.7l6.8-18.5H618zm-437.1 83.6h-5.3a24.7 24.7 0 0 0 4-6.8 19.9 19.9 0 0 1 1.3 6.8M107.6 82a11 11 0 0 1 3 .6c2 .8 6 4.5 8 4.8.5 0 1.4-.2.4-.9-.3-.2-2.7-2.4-1.8-3.5a1 1 0 0 1 1.2-.5 53.6 53.6 0 0 0 6.5 1.3 1.6 1.6 0 0 0 1.2-.1c.2-.2 0-.3-.5-.5a41 41 0 0 1-13.6-6.1 17.3 17.3 0 0 1-6.8-15.6 16.3 16.3 0 0 1 6.4-10.9 18.9 18.9 0 0 1 4.3-2c1.7-.6-1.1-1.1-1.3-1.1-.7-.1-.8-.9-.2-3.1A25.2 25.2 0 0 1 131 27.2a26.2 26.2 0 0 1 3.8-.9c1.7-.3 1-1-1-1.2 0 0-.5 0-.2-.5a3.9 3.9 0 0 1 .9-.8 11.2 11.2 0 0 1 5.5-1.6c3.9-.1 7.2 2.1 7.6 4.1 0 0 0 .4-.3.4-.7 0-1.3.3-.3.8a24.3 24.3 0 0 1 2.7 1.1l.2.1c2.9 1.4 12 6.9 11.3 22.5l-.1 1.4-.1 1.3c-1-.1-1.2.3-.6.9a30.8 30.8 0 0 1 2.2 2.8 19 19 0 0 1 2.5 12 14.7 14.7 0 0 1-7.6 11 35.1 35.1 0 0 1-9.6 3.6c-1 .2-.5 1.4 3.7 1.3.4 0 1 .1 1.3.5.5.9-.4 2.7-2.2 3.8-1.6.9-.3 1.1 1.9.5a7.5 7.5 0 0 1 2.5.7 49.6 49.6 0 0 1 19.3 15.3c4.7 6.7 6.4 12 4.9 15.3-1.4 3.2-5.7 3.8-5.7 3.8h-.1c-16.3 2.5-44.7-1.9-64.2-7.7a120.8 120.8 0 0 1-13.1-4.8 27.7 27.7 0 0 0-4.4-29.2l-.3-.3a86.7 86.7 0 0 1 16-1.4" fill="#fff"/><path d="M187.6 111.1a21.2 21.2 0 0 1 3.2 15.9 20.5 20.5 0 0 1-7 11.9c0-3.9-.6-8.4-3.4-12a10 10 0 0 0 2.9-3.7c2.2-4.8.4-11.4-5.3-19.6v-.1a1.8 1.8 0 0 0-.4-.5 22 22 0 0 1 10 8.1m-99-24.6a22.9 22.9 0 0 1 2.6 26.6A23.3 23.3 0 0 1 66 124.3a15.7 15.7 0 0 1-3.8-1.4 11 11 0 0 0 2.6-.6c9.2-2.5 16-11 17.2-21.2a24.6 24.6 0 0 0-5-17.6 19.3 19.3 0 0 0-4.7-4.3 21.7 21.7 0 0 1 16.2 7.3" fill="#fff"/><path d="M73.7 86.2a20.4 20.4 0 0 1 4 14.5 20.1 20.1 0 0 1-14 17.5 21 21 0 0 1-16.5-2.5A22.8 22.8 0 0 0 68 100a21.3 21.3 0 0 0-.3-14.1 22.7 22.7 0 0 0-3.2-5.7 17.4 17.4 0 0 1 9 6" fill="#fff"/><path d="M59.4 86.4a22.8 22.8 0 0 0 .4-5.2A17 17 0 0 1 64 98.6a18.3 18.3 0 0 1-20.7 12.3 18.9 18.9 0 0 1-10.4-6.4 25 25 0 0 0 4.7.5 22.3 22.3 0 0 0 8.8-1.8 22.8 22.8 0 0 0 12.9-16.8" fill="#fff"/><path d="M52.9 72.1A19.3 19.3 0 0 1 55 85.6a18.4 18.4 0 0 1-10.4 13.7A18.5 18.5 0 0 1 26 96.8a19.4 19.4 0 0 1-7.7-13.1 7.6 7.6 0 0 0 1.4 1.1 20.6 20.6 0 0 0 12 3.7 23.5 23.5 0 0 0 5.7-.7A21 21 0 0 0 51 77.3a23 23 0 0 0 1.8-5.2" fill="#fff"/><path d="M4.6 17.2l.2-.1.5-.3H6a.6.6 0 0 1 .4.1c1.2.5 2.2 2 2.4 4.2a25.1 25.1 0 0 0 3.9 10.6 1 1 0 0 0 .8.4.8.8 0 0 0 .5-.2 1 1 0 0 0 .2-1.3 23.7 23.7 0 0 1-3.6-9.8c-.4-2.9-1.7-5-3.7-5.7a3.4 3.4 0 0 0-1.4-.2 11.4 11.4 0 0 1-.6-1.4c-.2-.8-.5-2.4 1.2-3l.3-.1h.2c1.3-.2 3 .4 4.7 6.5a55 55 0 0 0 5.2 11.2 1 1 0 0 0 .8.4c.2 0 .4 0 .5-.2a1 1 0 0 0 .3-1.3 49.8 49.8 0 0 1-5-10.6c-.7-2.6-1.8-5.4-3.5-6.9L9 7.9C8.8 7 8.5 5 10 4.5a3.7 3.7 0 0 1 1-.2c1.3 0 2 1.2 2.4 2a.8.8 0 0 0 .2.4L21.4 25c0 .1 0 .3.2.3a1 1 0 0 0 .9.2.9.9 0 0 0 .5-1.1L15.5 6.6a1.7 1.7 0 0 1 .8-.9 3.5 3.5 0 0 1 1.2-.3 2.2 2.2 0 0 1 1.7.9L31 29a21.4 21.4 0 0 0-1.5 2.8c-.1.5.2.9.4.5l2-2.6v-.1c.6-.8 2-4.7 2.6-5.9a18.8 18.8 0 0 1 2.2-5.7 3.6 3.6 0 0 1 3-1.8c1.2 0 2 .6 2 1.1l-2.3 15.3A158 158 0 0 0 38 42.8a12.3 12.3 0 0 1-.2 1.9v.2a1.6 1.6 0 0 1-.1.4 17.3 17.3 0 0 1-1.4 4l.8 3.6a36.5 36.5 0 0 0 .8 3.6c.6 2-.2 3.2.2 3.6.5.6 1.8-2.1 2-3.5.4-1.1-.1-3.4-.4-5a14.4 14.4 0 0 1 4.2 2.9 13.3 13.3 0 0 1 3.8 6.3A40 40 0 0 1 49 68a16 16 0 0 1-12.7 15.6 17 17 0 0 1-14-2.3 19.5 19.5 0 0 1-7-18.1 15.5 15.5 0 0 1 2.3-5.3 13 13 0 0 0 1.7.8l.4 1.7c0 .2 1 4.8 2.8 6.2a6.3 6.3 0 0 0 3.3.9c.5 0 1.8-.1 2-.6a.7.7 0 0 0-.1-.6 1.9 1.9 0 0 0-.6-.4c-1-.5-2.5-1.3-2.8-2.9L23 57.1c1.8-1.4 2-3-.4-2.5a4.9 4.9 0 0 1-3.8-1.2C14 49.3 9 36.6 8 34.3 4 24.1 3.3 18.7 4.6 17.2m63.9 111.9a24.4 24.4 0 0 0 2.7.1c8.8 0 17.4-4.7 22.9-12.7a113.6 113.6 0 0 0 14 5.2 229.5 229.5 0 0 0 34.8 7.2 165.4 165.4 0 0 0 19.8 1.4 78.2 78.2 0 0 0 11.6-.8 10.5 10.5 0 0 0 2.2-.6c2.6 2.8 3.2 6.8 3 10.2H69.9c-1-1.9-2-5.2-1.4-10" fill="#fff"/><path d="M128.9 55.1a4.6 4.6 0 0 0 1.8 1.3 10.6 10.6 0 0 0 1.9.4l1.7.1c2.7-.1 5.2-4.2 5.3-8.3 0-3.7-.4-6.5-3.1-8.1a3.6 3.6 0 0 0-1-.4 6.3 6.3 0 0 0-3.5-.2 5.9 5.9 0 0 0-3.2 2.6 14.4 14.4 0 0 0-1.5 4.1 13 13 0 0 0-.2 4.4 10 10 0 0 0 1.8 4.1zm-.5-6.5c.2-1.7 1.2-7.2 5.5-6.8 3.3.3 4.2 2.8 4.5 4.9v.3a10.2 10.2 0 0 1-.7 4.9 7.1 7.1 0 0 1-.8 1.5c-.8 1.3-1.8 2.1-2.6 2.1h-.2c1.5-.8 2.6-2.8 2.8-5.2.3-3.2-1.2-6-3.4-6.2a3.4 3.4 0 0 0-2.8 1.3c.8 0 1.4.8 1.5 1.8a2 2 0 0 1-1.4 2 1.5 1.5 0 0 1-1.4-1.2 4.7 4.7 0 0 0-.3 1.7 6.8 6.8 0 0 0 1.2 4.9l-.4-.4a7 7 0 0 1-1.4-3.6 6.6 6.6 0 0 1-.1-2zm25.4 15.7c-.5-.1-.6.3-.4.5l.2.2-.5.3a16 16 0 0 1-3.3 1.1 26.3 26.3 0 0 1-8.4.4 45 45 0 0 1-13.5-3.2 11.7 11.7 0 0 1-1.1-.5l-.6-.3a.9.9 0 0 0-1.2.8 1 1 0 0 0 .7 1 38.8 38.8 0 0 0 3.6 1.5 9.2 9.2 0 0 1 2.6 2.2 15.9 15.9 0 0 0 3.2 2.6 12.4 12.4 0 0 0 7.8 1.4 10.3 10.3 0 0 0 3.8-1.4l2.4-1.8a12.1 12.1 0 0 1 1.4-1l3.5-1.6c0 .4 0 .7.2.8.3.1.5-.5.6-.9a2.3 2.3 0 0 0-.1-1.2 1 1 0 0 0-1-.9zm-9.8 6a9.3 9.3 0 0 1-3.7.3 11.2 11.2 0 0 1-3.6-.9 12.8 12.8 0 0 1-3.2-2.4 40.2 40.2 0 0 0 13.8 1.2 13.2 13.2 0 0 1-3.3 1.8zm-17.1-8.9c-.1-.4-.6-.4-.7-.4a3.5 3.5 0 0 0-1.4.3 3 3 0 0 0-2 2.5.4.4 0 0 0 .2.3.5.5 0 0 0 .4.2c.2 0 .3-.2.3-.4a1.4 1.4 0 0 1 .4-.9 3.4 3.4 0 0 1 2.2-1c.4 0 .7-.2.6-.6zm29.6-15.3a5.6 5.6 0 0 0-2.3-3.3 5 5 0 0 0-3.4-.7 3 3 0 0 0-1 .2c-2.8.9-4 3.5-4.8 7-1 3.9.4 8.5 2.9 9.2l1.6.4a6 6 0 0 0 1.9.1 3.9 3.9 0 0 0 2-.8 9.3 9.3 0 0 0 2.6-3.6 12.7 12.7 0 0 0 .9-4.2 20.9 20.9 0 0 0-.4-4.3zm-1.1 6.1a6.6 6.6 0 0 1-.6 2 7.7 7.7 0 0 1-2.2 3.1 3 3 0 0 1-1.2.5 6.6 6.6 0 0 0 2.7-5.1c.3-3.2-1.2-6-3.3-6.2a3.4 3.4 0 0 0-2.8 1.3 1.6 1.6 0 0 1 1.4 1.8 2 2 0 0 1-1.3 2 1.6 1.6 0 0 1-1.4-1.2 4.7 4.7 0 0 0-.3 1.7 6.5 6.5 0 0 0 1.5 5.2 5 5 0 0 1-1.6-2.5 4.7 4.7 0 0 1-.3-1.7 10 10 0 0 1 .6-4.9v-.3c.9-2 2.3-4.1 5.5-3.6 4 .7 3.6 6.2 3.3 7.9z"/></svg>