<svg width="786" height="191" fill="none" xmlns="http://www.w3.org/2000/svg"><path d="M195.415 163.5l-.2-.3a25.502 25.502 0 0 0-20.3-28.3l-2.1-.3h-.3a56.298 56.298 0 0 0-16.6-11.1c.105-.324.172-.66.2-1l.3-.1c7.3-3.2 11.6-8.5 12.5-15.5a23.202 23.202 0 0 0-4-15.9v-.2c.8-7.4-.3-13.9-3.2-19.3a22.602 22.602 0 0 0-10.3-9.8h-.1c-1.2-4-6.3-7-11.7-6.9-4.3.1-9 2.1-10.7 5.4a30.597 30.597 0 0 0-19.9 23.9 20.502 20.502 0 0 0-2.8 30.6 97.185 97.185 0 0 0-18.8 2l-.2.1c-6.1-4.3-14-6-21-4.1a2.998 2.998 0 0 0-.8.4 40.218 40.218 0 0 0-6.4-1.3h-.4a20.894 20.894 0 0 0-5.2-8.7l-.4-.4c-.4-2.4-1-5-1.3-6a17.6 17.6 0 0 0-5-8.1 19.698 19.698 0 0 0-5.5-3.9c.234-.622.434-1.256.6-1.9v-.5c0-.1.9-7.5 1.8-11.9v-.2l2.5-15.5v-.1a5 5 0 0 0-1.3-3.7 6.5 6.5 0 0 0-5-2 7.7 7.7 0 0 0-6.5 3.8 20.707 20.707 0 0 0-2 4.6l-8.2-16a.3.3 0 0 0-.1-.2 6.199 6.199 0 0 0-5.3-3 5.9 5.9 0 0 0-2.3.4 6.1 6.1 0 0 0-4-1.5 6.2 6.2 0 0 0-2.4.4 6.2 6.2 0 0 0-4.2 6.1 6 6 0 0 0-4 4.6 6.4 6.4 0 0 0 .3 3.3v.4l-.1.3c-1.4 2.3-2.2 6.7 3.5 20.9a.1.1 0 0 0 0 .1l.5 1a122.007 122.007 0 0 0 5.6 11.9 42.819 42.819 0 0 0 4 6.1 21.201 21.201 0 0 0-3.1 7.2 22 22 0 0 0 1 11.7 26.21 26.21 0 0 0 2.2 4.8l-.1.4a22.8 22.8 0 0 0 9.3 21.2 39.601 39.601 0 0 0 3.4 2.2 18.3 18.3 0 0 0 6 8.3 21.416 21.416 0 0 0 6.8 3.7v.1a20.304 20.304 0 0 0 11.4 7.7l3.8.8.2.2a21.4 21.4 0 0 0 9 5.1 22.902 22.902 0 0 0 1 11h133.8a28.203 28.203 0 0 0-4-13h.1z" fill="#000"/><path d="M664.815 176.2h-631.6l-5.1 14h631.6l5-14h.1z" fill="#FCE500"/><path d="M404.815 93.2c-16.3 3.3-38.5 15.4-38.3 37.3 0 12.6 15.4 19.7 32.9 19.2a146.975 146.975 0 0 0 20.4-2.3l6.5-16.9c-8.6 1.4-17 3.4-23.3.8-11.7-4.7-4.5-16.8 3.8-20.6a32.793 32.793 0 0 1 14.5-3.1c2.5 0 8.5.2 10.8 5.5l8.2-19.6a84.3 84.3 0 0 0-35.5-.3zm88.7-.6l-7.5 20.1h-13.6l7.4-20.1h-25.8l-20.5 55.7h25.7l7-18.9h13.6l-7 18.9h25.7l20.5-55.7h-25.5zm-153.2 0l-20.5 55.7h27l20.5-55.7h-27zm-53.7 0l-19.7 29.9 1.6-19.4c.2-2.9-.1-10.5-7.1-10.5h-31.4l-20.5 55.7h24.5l15-40.3-3.1 40.3h21.7l26.7-39.6-14.6 39.6h24.6l20.5-55.7h-38.2zm476.3 0l-14.1 38.2 1.4-27.8c.2-3.6-.6-6.4-2.3-8.2a7.402 7.402 0 0 0-5-2.2h-31.3l-20.6 55.8h22.8l14.5-39.5-1.7 39.5h38.2l20.5-55.7-22.5-.1h.1zm-94.3 0l-20.6 55.8h27l20.5-55.7-27-.1h.1zm-114.2 14.6h30.8l5.4-14.6h-56.3l-20.5 55.7h56.9l5.5-15h-31.4l2.3-6.2h29.3l5-13.7h-29.4l2.4-6.2zm77.4-14.6h-26.3l-20.5 55.7h52.7l6.8-18.5h-26.5l13.8-37.2zm-437.1 83.6h-5.3a24.725 24.725 0 0 0 4-6.8 19.914 19.914 0 0 1 1.3 6.8zm-87.1-57.2c1.023.059 2.032.261 3 .6 2 .8 6 4.5 8 4.8.5 0 1.4-.2.4-.9-.3-.2-2.7-2.4-1.8-3.5a.997.997 0 0 1 1.2-.5 53.588 53.588 0 0 0 6.5 1.3c.397.124.828.088 1.2-.1.2-.2 0-.3-.5-.5a40.993 40.993 0 0 1-13.6-6.1 17.297 17.297 0 0 1-6.8-15.6 16.293 16.293 0 0 1 6.4-10.9 18.878 18.878 0 0 1 4.3-2c1.7-.6-1.1-1.1-1.3-1.1-.7-.1-.8-.9-.2-3.1a25.192 25.192 0 0 1 16.6-17.2 26.17 26.17 0 0 1 3.8-.9c1.7-.3 1-1-1-1.2 0 0-.5 0-.2-.5.256-.312.56-.581.9-.8a11.198 11.198 0 0 1 5.5-1.6c3.9-.1 7.2 2.1 7.6 4.1 0 0 0 .4-.3.4-.7 0-1.3.3-.3.8.921.312 1.822.68 2.7 1.1l.2.1c2.9 1.4 12 6.9 11.3 22.5l-.1 1.4-.1 1.3c-1-.1-1.2.3-.6.9a30.97 30.97 0 0 1 2.2 2.8 19.003 19.003 0 0 1 2.5 12 14.7 14.7 0 0 1-7.6 11 35.13 35.13 0 0 1-9.6 3.6c-1 .2-.5 1.4 3.7 1.3.4 0 1 .1 1.3.5.5.9-.4 2.7-2.2 3.8-1.6.9-.3 1.1 1.9.5a7.501 7.501 0 0 1 2.5.7 49.598 49.598 0 0 1 19.3 15.3c4.7 6.7 6.4 12 4.9 15.3-1.4 3.2-5.7 3.8-5.7 3.8h-.1c-16.3 2.5-44.7-1.9-64.2-7.7a120.703 120.703 0 0 1-13.1-4.8 27.7 27.7 0 0 0-4.4-29.2l-.3-.3a86.709 86.709 0 0 1 16-1.4" fill="#fff"/><path d="M187.615 148.1a21.2 21.2 0 0 1 3.2 15.9 20.503 20.503 0 0 1-7 11.9c0-3.9-.6-8.4-3.4-12a10 10 0 0 0 2.9-3.7c2.2-4.8.4-11.4-5.3-19.6v-.1a1.811 1.811 0 0 0-.4-.5 22.006 22.006 0 0 1 10 8.1zm-99-24.6a22.9 22.9 0 0 1 2.6 26.6 23.297 23.297 0 0 1-25.2 11.2 15.704 15.704 0 0 1-3.8-1.4 11 11 0 0 0 2.6-.6c9.2-2.5 16-11 17.2-21.2a24.601 24.601 0 0 0-5-17.6 19.295 19.295 0 0 0-4.7-4.3 21.707 21.707 0 0 1 16.2 7.3" fill="#fff"/><path d="M73.715 123.2a20.4 20.4 0 0 1 4 14.5 20.099 20.099 0 0 1-14 17.5 21 21 0 0 1-16.5-2.5 22.798 22.798 0 0 0 20.8-15.7 21.3 21.3 0 0 0-.3-14.1 22.717 22.717 0 0 0-3.2-5.7 17.402 17.402 0 0 1 9 6" fill="#fff"/><path d="M59.415 123.4c.331-1.712.466-3.457.4-5.2a17.004 17.004 0 0 1 4.2 17.4 18.302 18.302 0 0 1-20.7 12.3 18.903 18.903 0 0 1-10.4-6.4c1.547.315 3.12.482 4.7.5 3.025.003 6.019-.609 8.8-1.8a22.805 22.805 0 0 0 12.9-16.8" fill="#fff"/><path d="M52.914 109.1a19.299 19.299 0 0 1 2.1 13.5 18.4 18.4 0 0 1-10.4 13.7 18.506 18.506 0 0 1-18.6-2.5 19.402 19.402 0 0 1-7.7-13.1c.422.42.892.789 1.4 1.1a20.599 20.599 0 0 0 12 3.7 23.503 23.503 0 0 0 5.7-.7 21.001 21.001 0 0 0 13.6-10.5 22.996 22.996 0 0 0 1.8-5.2" fill="#fff"/><path d="M4.615 54.2l.2-.1.5-.3h.7a.6.6 0 0 1 .4.1c1.2.5 2.2 2 2.4 4.2a25.1 25.1 0 0 0 3.9 10.6 1 1 0 0 0 .8.4.8.8 0 0 0 .5-.2 1 1 0 0 0 .2-1.3 23.699 23.699 0 0 1-3.6-9.8c-.4-2.9-1.7-5-3.7-5.7a3.4 3.4 0 0 0-1.4-.2c-.231-.453-.432-.92-.6-1.4-.2-.8-.5-2.4 1.2-3l.3-.1h.2c1.3-.2 3 .4 4.7 6.5a54.997 54.997 0 0 0 5.2 11.2 1 1 0 0 0 .8.4c.2 0 .4 0 .5-.2a1 1 0 0 0 .3-1.3 49.797 49.797 0 0 1-5-10.6c-.7-2.6-1.8-5.4-3.5-6.9l-.6-1.6c-.2-.9-.5-2.9 1-3.4a3.7 3.7 0 0 1 1-.2c1.3 0 2 1.2 2.4 2 .027.15.096.288.2.4l7.8 18.3c0 .1 0 .3.2.3a1 1 0 0 0 .9.2.9.9 0 0 0 .5-1.1l-7.5-17.8a1.7 1.7 0 0 1 .8-.9c.379-.17.785-.272 1.2-.3a2.2 2.2 0 0 1 1.7.9l11.8 22.7c-.57.895-1.07 1.83-1.5 2.8-.1.5.2.9.4.5l2-2.6v-.1c.6-.8 2-4.7 2.6-5.9a18.798 18.798 0 0 1 2.2-5.7 3.6 3.6 0 0 1 3-1.8c1.2 0 2 .6 2 1.1l-2.3 15.3a157.939 157.939 0 0 0-1.4 10.2 12.315 12.315 0 0 1-.2 1.9v.2c-.016.137-.05.271-.1.4a17.302 17.302 0 0 1-1.4 4l.8 3.6c.205 1.213.472 2.414.8 3.6.6 2-.2 3.2.2 3.6.5.6 1.8-2.1 2-3.5.4-1.1-.1-3.4-.4-5a14.402 14.402 0 0 1 4.2 2.9 13.3 13.3 0 0 1 3.8 6.3 40 40 0 0 1 1.3 7.2 15.998 15.998 0 0 1-12.7 15.6 16.992 16.992 0 0 1-14-2.3 19.5 19.5 0 0 1-7-18.1 15.499 15.499 0 0 1 2.3-5.3c.546.307 1.114.575 1.7.8l.4 1.7c0 .2 1 4.8 2.8 6.2.995.599 2.138.91 3.3.9.5 0 1.8-.1 2-.6a.7.7 0 0 0-.1-.6 1.911 1.911 0 0 0-.6-.4c-1-.5-2.5-1.3-2.8-2.9l-1.3-5.9c1.8-1.4 2-3-.4-2.5a4.9 4.9 0 0 1-3.8-1.2c-4.8-4.1-9.8-16.8-10.8-19.1-4-10.2-4.7-15.6-3.4-17.1zm63.9 111.9c.897.083 1.798.117 2.7.1 8.8 0 17.4-4.7 22.9-12.7a113.456 113.456 0 0 0 14 5.2 229.468 229.468 0 0 0 34.8 7.2c6.566.863 13.177 1.33 19.8 1.4a78.17 78.17 0 0 0 11.6-.8c.753-.12 1.49-.321 2.2-.6 2.6 2.8 3.2 6.8 3 10.2h-109.6c-1-1.9-2-5.2-1.4-10" fill="#fff"/><path d="M128.915 92.1a4.588 4.588 0 0 0 1.8 1.3c.619.191 1.255.325 1.9.4l1.7.1c2.7-.1 5.2-4.2 5.3-8.3 0-3.7-.4-6.5-3.1-8.1a3.613 3.613 0 0 0-1-.4 6.3 6.3 0 0 0-3.5-.2 5.898 5.898 0 0 0-3.2 2.6 14.362 14.362 0 0 0-1.5 4.1 12.963 12.963 0 0 0-.2 4.4 9.984 9.984 0 0 0 1.8 4.1zm-.5-6.5c.2-1.7 1.2-7.2 5.5-6.8 3.3.3 4.2 2.8 4.5 4.9v.3a10.208 10.208 0 0 1-.7 4.9 7.155 7.155 0 0 1-.8 1.5c-.8 1.3-1.8 2.1-2.6 2.1h-.2c1.5-.8 2.6-2.8 2.8-5.2.3-3.2-1.2-6-3.4-6.2a3.402 3.402 0 0 0-2.8 1.3c.8 0 1.4.8 1.5 1.8a2.003 2.003 0 0 1-1.4 2 1.502 1.502 0 0 1-1.4-1.2 4.677 4.677 0 0 0-.3 1.7 6.793 6.793 0 0 0 1.2 4.9l-.4-.4a6.985 6.985 0 0 1-1.4-3.6 6.582 6.582 0 0 1-.1-2zm25.4 15.7c-.5-.1-.6.3-.4.5l.2.2-.5.3a16.01 16.01 0 0 1-3.3 1.1 26.304 26.304 0 0 1-8.4.4 44.984 44.984 0 0 1-13.5-3.2 11.84 11.84 0 0 1-1.1-.5l-.6-.3a.9.9 0 0 0-1.2.8.996.996 0 0 0 .7 1 38.636 38.636 0 0 0 3.6 1.5 9.206 9.206 0 0 1 2.6 2.2 15.884 15.884 0 0 0 3.2 2.6 12.4 12.4 0 0 0 7.8 1.4 10.307 10.307 0 0 0 3.8-1.4l2.4-1.8c.442-.366.91-.7 1.4-1l3.5-1.6c0 .4 0 .7.2.8.3.1.5-.5.6-.9a2.312 2.312 0 0 0-.1-1.2 1.002 1.002 0 0 0-1-.9h.1zm-9.8 6a9.288 9.288 0 0 1-3.7.3 11.203 11.203 0 0 1-3.6-.9 12.777 12.777 0 0 1-3.2-2.4 40.198 40.198 0 0 0 13.8 1.2 13.24 13.24 0 0 1-3.3 1.8zm-17.1-8.9c-.1-.4-.6-.4-.7-.4a3.498 3.498 0 0 0-1.4.3 3 3 0 0 0-2 2.5.39.39 0 0 0 .2.3.5.5 0 0 0 .4.2c.2 0 .3-.2.3-.4.019-.339.162-.658.4-.9a3.398 3.398 0 0 1 2.2-1c.4 0 .7-.2.6-.6zm29.6-15.3a5.606 5.606 0 0 0-2.3-3.3 5.001 5.001 0 0 0-3.4-.7c-.343.01-.681.077-1 .2-2.8.9-4 3.5-4.8 7-1 3.9.4 8.5 2.9 9.2l1.6.4a6 6 0 0 0 1.9.1 3.904 3.904 0 0 0 2-.8 9.314 9.314 0 0 0 2.6-3.6c.536-1.339.84-2.76.9-4.2a20.967 20.967 0 0 0-.4-4.3zm-1.1 6.1a6.635 6.635 0 0 1-.6 2 7.71 7.71 0 0 1-2.2 3.1 3.007 3.007 0 0 1-1.2.5 6.599 6.599 0 0 0 2.7-5.1c.3-3.2-1.2-6-3.3-6.2a3.402 3.402 0 0 0-2.8 1.3 1.603 1.603 0 0 1 1.4 1.8 2.007 2.007 0 0 1-1.3 2 1.602 1.602 0 0 1-1.4-1.2 4.677 4.677 0 0 0-.3 1.7 6.487 6.487 0 0 0 1.5 5.2 4.994 4.994 0 0 1-1.6-2.5 4.677 4.677 0 0 1-.3-1.7 9.988 9.988 0 0 1 .6-4.9v-.3c.9-2 2.3-4.1 5.5-3.6 4 .7 3.6 6.2 3.3 7.9z" fill="#000"/><path d="M100 25V.729h5.146V25H100zM146.388 25h-6.541L129.288 6.639h-.149c.21 3.243.315 5.556.315 6.94V25h-4.598V.729h6.491l10.542 18.178h.116c-.166-3.154-.249-5.384-.249-6.69V.729h4.632V25zM193.693 12.15h1.693c1.583 0 2.767-.31 3.553-.93.785-.63 1.178-1.543 1.178-2.739 0-1.206-.332-2.097-.996-2.672-.653-.576-1.682-.864-3.088-.864h-2.34v7.205zM205.314 8.3c0 2.612-.819 4.61-2.457 5.993-1.627 1.383-3.946 2.075-6.956 2.075h-2.208V25h-5.147V.729h7.753c2.944 0 5.18.636 6.707 1.909 1.538 1.261 2.308 3.148 2.308 5.66zM238.354 25l-1.76-5.777h-8.848L225.986 25h-5.545L229.007.629h6.292l8.6 24.371h-5.545zm-2.988-10.094a4657.694 4657.694 0 0 1-2.756-8.882 28.554 28.554 0 0 1-.432-1.627c-.365 1.417-1.411 4.92-3.137 10.51h6.325zM265.717 11.503h1.66c1.627 0 2.828-.271 3.602-.813.775-.543 1.163-1.395 1.163-2.557 0-1.151-.399-1.97-1.196-2.457-.786-.487-2.008-.73-3.669-.73h-1.56v6.557zm0 4.184V25h-5.147V.729h7.073c3.298 0 5.738.603 7.321 1.81 1.583 1.194 2.374 3.015 2.374 5.461 0 1.428-.393 2.7-1.179 3.818-.786 1.107-1.898 1.976-3.337 2.607 3.653 5.456 6.032 8.981 7.139 10.575h-5.711l-5.794-9.313h-2.739zM305.979 25h-5.147V5.012h-6.59V.729h18.328v4.283h-6.591V25zM351.437 25h-6.541L334.338 6.639h-.15c.211 3.243.316 5.556.316 6.94V25h-4.599V.729h6.491l10.542 18.178h.116c-.166-3.154-.249-5.384-.249-6.69V.729h4.632V25zM385.142 25h-13.979V.729h13.979v4.216h-8.832v5.33h8.218v4.216h-8.218v6.259h8.832V25zM408.968 11.503h1.661c1.626 0 2.827-.271 3.602-.813.775-.543 1.162-1.395 1.162-2.557 0-1.151-.398-1.97-1.195-2.457-.786-.487-2.009-.73-3.669-.73h-1.561v6.557zm0 4.184V25h-5.146V.729h7.072c3.298 0 5.739.603 7.321 1.81 1.583 1.194 2.374 3.015 2.374 5.461 0 1.428-.392 2.7-1.178 3.818-.786 1.107-1.898 1.976-3.337 2.607 3.652 5.456 6.032 8.981 7.138 10.575h-5.71l-5.794-9.313h-2.74zM454.194 18.26c0 2.191-.791 3.918-2.374 5.18-1.571 1.261-3.763 1.892-6.574 1.892-2.59 0-4.881-.487-6.873-1.46V19.09c1.638.73 3.022 1.245 4.15 1.544 1.14.299 2.181.448 3.122.448 1.128 0 1.992-.216 2.589-.647.609-.432.913-1.074.913-1.926 0-.476-.132-.897-.398-1.262-.266-.376-.659-.736-1.179-1.079-.509-.343-1.555-.891-3.137-1.644-1.483-.697-2.596-1.366-3.337-2.008a7.54 7.54 0 0 1-1.777-2.242c-.442-.852-.664-1.848-.664-2.988 0-2.147.725-3.835 2.175-5.063C442.291.994 444.305.38 446.873.38c1.262 0 2.463.15 3.603.448 1.151.299 2.351.72 3.602 1.262l-1.66 4c-1.295-.53-2.369-.901-3.221-1.111a10.237 10.237 0 0 0-2.49-.316c-.974 0-1.721.227-2.241.68-.52.455-.78 1.047-.78 1.777 0 .454.105.852.315 1.195.21.332.542.659.996.98.465.31 1.555.874 3.271 1.693 2.268 1.085 3.823 2.175 4.665 3.27.841 1.085 1.261 2.42 1.261 4.002zM492.082 25h-5.129V14.524h-9.613V25h-5.146V.729h5.146v9.512h9.613V.73h5.129V25zM511.825 25V.729h5.146V25h-5.146zM541.827 12.15h1.694c1.582 0 2.767-.31 3.552-.93.786-.63 1.179-1.543 1.179-2.739 0-1.206-.332-2.097-.996-2.672-.653-.576-1.682-.864-3.088-.864h-2.341v7.205zM553.448 8.3c0 2.612-.819 4.61-2.457 5.993-1.627 1.383-3.945 2.075-6.956 2.075h-2.208V25h-5.146V.729h7.753c2.944 0 5.179.636 6.707 1.909 1.538 1.261 2.307 3.148 2.307 5.66zM617.703 25h-5.86l-3.287-12.75c-.122-.454-.332-1.389-.631-2.806-.288-1.427-.454-2.385-.498-2.872-.067.598-.233 1.56-.498 2.889a65.112 65.112 0 0 1-.615 2.822L603.044 25H597.2L591.008.729h5.063l3.105 13.248c.542 2.445.935 4.565 1.178 6.358.067-.63.216-1.605.449-2.922.243-1.328.47-2.357.68-3.088L605.02.73h4.864l3.536 13.596c.155.609.349 1.539.581 2.79.232 1.25.409 2.324.531 3.22a56.87 56.87 0 0 1 .531-3.22 56.16 56.16 0 0 1 .665-3.138L618.815.729h5.064L617.703 25zM640.534 25V.729h5.146V25h-5.146zM674.753 25h-5.147V5.012h-6.591V.729h18.329v4.283h-6.591V25zM718.568 25h-5.13V14.524h-9.613V25h-5.146V.729h5.146v9.512h9.613V.73h5.13V25z" fill="#fff"/></svg>