<svg data-name="Layer 1" xmlns="http://www.w3.org/2000/svg" width="1396" height="434" viewBox="0 0 1047 325"><path d="M261 290l-1-1a34 34 0 0 0-27-37l-3-1a75 75 0 0 0-22-15 6 6 0 0 0 0-1h1c9-4 15-11 16-21a31 31 0 0 0-5-21c1-10-1-19-4-26a30 30 0 0 0-14-13c-2-5-9-9-16-9-6 0-12 3-14 7a41 41 0 0 0-27 32 27 27 0 0 0-3 41 130 130 0 0 0-25 2h-1c-8-5-18-8-28-5a4 4 0 0 0-1 0 54 54 0 0 0-8-1h-1a28 28 0 0 0-7-12l-2-8a23 23 0 0 0-7-11 26 26 0 0 0-7-5 24 24 0 0 0 1-3v-1l2-15v-1l3-20v-1a7 7 0 0 0-1-4 9 9 0 0 0-7-3 10 10 0 0 0-9 5 28 28 0 0 0-2 6l-11-21v-1a8 8 0 0 0-7-4 8 8 0 0 0-3 1 8 8 0 0 0-6-2 8 8 0 0 0-3 1 8 8 0 0 0-6 8 8 8 0 0 0-5 6 9 9 0 0 0 0 4v1c-2 3-3 9 5 28l1 1a163 163 0 0 0 7 16 57 57 0 0 0 5 8 28 28 0 0 0-4 10 29 29 0 0 0 2 16 35 35 0 0 0 3 6l-1 1a30 30 0 0 0 13 28 53 53 0 0 0 4 3 24 24 0 0 0 8 11 29 29 0 0 0 9 5 27 27 0 0 0 16 10l5 1v1a29 29 0 0 0 12 6 31 31 0 0 0 1 15h179a38 38 0 0 0-6-17z"/><path d="M886 307H44l-7 18h843l6-18z" fill="#fce500"/><path d="M540 196c-22 4-52 20-51 50 0 16 20 26 44 25a196 196 0 0 0 27-3l8-22c-11 2-22 4-31 1-15-7-6-23 5-28a44 44 0 0 1 20-4c3 0 11 0 14 7l11-26a112 112 0 0 0-47 0zm118-1l-10 27h-18l10-27h-35l-27 74h34l10-25h18l-10 25h35l27-74zm-204 0l-28 74h36l28-74zm-72 0l-26 40 2-26c0-4 0-14-9-14h-42l-28 74h33l20-53-4 53h29l35-52-19 52h33l27-74zm635 0l-19 51 2-37c1-5-1-9-3-11a10 10 0 0 0-6-3h-42l-28 75h31l19-53-2 53h51l27-75h-30zm-126 0l-27 75h36l27-75h-36zm-152 20h41l7-20h-75l-27 74h76l7-20h-42l3-8h40l6-18h-39zm103-20h-35l-27 74h70l9-24h-35zM260 307h-7a33 33 0 0 0 5-9 27 27 0 0 1 2 9zm-117-77a15 15 0 0 1 4 1l11 7c1 0 2-1 1-2-1 0-4-3-3-4a1 1 0 0 1 1-1 1 1 0 0 1 1 0 71 71 0 0 0 9 2 2 2 0 0 0 1 0l-1-1a55 55 0 0 1-18-8 23 23 0 0 1-9-21 22 22 0 0 1 9-15 25 25 0 0 1 6-2c2-1-2-2-2-2v-4a34 34 0 0 1 22-23 35 35 0 0 1 5-1c2 0 1-1-2-2a5 5 0 0 1 1-1 15 15 0 0 1 8-2c5-1 9 2 10 5l-1 1v1a33 33 0 0 1 4 1c4 2 16 9 15 30v4c-2 0-2 0-1 1a41 41 0 0 1 3 4 25 25 0 0 1 3 16 20 20 0 0 1-10 14 47 47 0 0 1-13 5c-1 1 0 2 5 2a2 2 0 0 1 2 1c1 1-1 3-3 5h2a10 10 0 0 1 4 1 66 66 0 0 1 26 21c6 9 8 16 6 20s-8 5-8 5c-21 4-59-2-85-10a161 161 0 0 1-18-6 37 37 0 0 0-6-39v-1a116 116 0 0 1 21-2" fill="#fff"/><path d="M250 269a28 28 0 0 1 4 21 27 27 0 0 1-9 16c0-5-1-11-4-16a13 13 0 0 0 3-5c3-6 1-15-7-26a2 2 0 0 0 0-1 29 29 0 0 1 13 11zm-132-33a31 31 0 0 1 4 36 31 31 0 0 1-34 15 21 21 0 0 1-5-2 15 15 0 0 0 3-1c13-3 22-15 23-28a33 33 0 0 0-6-24 26 26 0 0 0-7-5 29 29 0 0 1 22 9" fill="#fff"/><path d="M98 236a27 27 0 0 1 6 19 27 27 0 0 1-19 24 28 28 0 0 1-22-4 30 30 0 0 0 28-21 28 28 0 0 0-1-18 30 30 0 0 0-4-8 23 23 0 0 1 12 8" fill="#fff"/><path d="M79 236a30 30 0 0 0 1-7 23 23 0 0 1 5 23 24 24 0 0 1-27 17 25 25 0 0 1-14-9 33 33 0 0 0 6 1 30 30 0 0 0 12-2 30 30 0 0 0 17-23" fill="#fff"/><path d="M71 217a26 26 0 0 1 2 18 25 25 0 0 1-14 18 25 25 0 0 1-24-3 26 26 0 0 1-11-17 10 10 0 0 0 2 1 27 27 0 0 0 16 5 31 31 0 0 0 8-1 28 28 0 0 0 18-14 31 31 0 0 0 2-7" fill="#fff"/><path d="M6 144l1-1h1a1 1 0 0 1 1 1l3 5a33 33 0 0 0 5 14 1 1 0 0 0 1 1 1 1 0 0 0 1 0 1 1 0 0 0 0-2 32 32 0 0 1-5-13c0-4-2-7-5-8a5 5 0 0 0-2 0 15 15 0 0 1 0-2c-1-1-1-3 1-4h1c2 0 4 0 6 9a73 73 0 0 0 7 14 1 1 0 0 0 1 1h1a1 1 0 0 0 0-2 66 66 0 0 1-7-14c0-4-2-7-4-9l-1-2c0-2-1-4 1-5a5 5 0 0 1 2 0l3 2a1 1 0 0 0 0 1l11 24v1a1 1 0 0 0 1 0 1 1 0 0 0 1-1l-10-24a2 2 0 0 1 1-1 5 5 0 0 1 1-1 3 3 0 0 1 3 1l15 31a29 29 0 0 0-2 3l1 1 3-3v-1l3-7a25 25 0 0 1 3-8 5 5 0 0 1 4-2l3 1-3 20-2 14a16 16 0 0 1-1 3 23 23 0 0 1-2 6l1 5a49 49 0 0 0 2 4v5l2-5v-6a19 19 0 0 1 6 4 18 18 0 0 1 5 8 53 53 0 0 1 1 10 21 21 0 0 1-17 20 23 23 0 0 1-18-3 26 26 0 0 1-10-24 21 21 0 0 1 3-7 17 17 0 0 0 3 1v3l4 8a8 8 0 0 0 4 1l3-1a1 1 0 0 0 0-1 3 3 0 0 0-1 0l-4-4-1-8c2-2 2-4-1-3a7 7 0 0 1-5-2c-6-5-13-22-14-25-6-14-7-21-5-23zm85 149a32 32 0 0 0 4 0c12 0 23-6 30-17a151 151 0 0 0 19 7 306 306 0 0 0 47 10 220 220 0 0 0 26 2 104 104 0 0 0 15-1 14 14 0 0 0 3-1c4 4 5 9 4 13H93a22 22 0 0 1-2-13" fill="#fff"/><path d="M172 194a6 6 0 0 0 2 2 14 14 0 0 0 3 1h2c4 0 7-6 7-11s0-9-4-11a5 5 0 0 0-1-1 8 8 0 0 0-5 0 8 8 0 0 0-4 4 19 19 0 0 0-2 5 17 17 0 0 0-1 6 13 13 0 0 0 3 5zm-1-8c0-2 2-10 8-9 4 0 5 3 6 6v1a14 14 0 0 1-1 6 10 10 0 0 1-1 2l-4 3c2-1 3-4 4-7 0-4-2-8-5-8a5 5 0 0 0-4 2l2 2a3 3 0 0 1-2 3 2 2 0 0 1-1-2 6 6 0 0 0-1 2 9 9 0 0 0 2 7l-1-1a9 9 0 0 1-2-5 9 9 0 0 1 0-2zm34 21c-1 0-1 0 0 0v1h-1a21 21 0 0 1-4 2 35 35 0 0 1-11 0 60 60 0 0 1-18-4 15 15 0 0 1-2-1h-1a1 1 0 0 0-1 0 1 1 0 0 0 0 1 1 1 0 0 0 1 1 52 52 0 0 0 4 2 12 12 0 0 1 4 3 21 21 0 0 0 4 4 17 17 0 0 0 11 1 14 14 0 0 0 5-1l3-3a16 16 0 0 1 2-1l4-2 1 1v-1a3 3 0 0 0 0-2 1 1 0 0 0-1-1zm-13 8a12 12 0 0 1-5 0 15 15 0 0 1-5-1 17 17 0 0 1-4-3 54 54 0 0 0 18 1 18 18 0 0 1-4 3zm-23-12l-1-1a5 5 0 0 0-2 1 4 4 0 0 0-2 3 1 1 0 0 0 0 1 1 1 0 0 0 1 0v-1a2 2 0 0 1 0-1 5 5 0 0 1 3-1l1-1zm40-21a7 7 0 0 0-3-4 7 7 0 0 0-5-1 4 4 0 0 0-1 0c-4 2-6 5-7 10s1 11 4 12l2 1a8 8 0 0 0 3 0 5 5 0 0 0 3-1 12 12 0 0 0 3-5 17 17 0 0 0 1-6 28 28 0 0 0 0-6zm-2 9a9 9 0 0 1-1 2 10 10 0 0 1-3 4 4 4 0 0 1-1 1 9 9 0 0 0 3-7c1-4-1-8-4-8a5 5 0 0 0-4 2 2 2 0 0 1 2 2 3 3 0 0 1-2 3 2 2 0 0 1-1-2 6 6 0 0 0-1 2 9 9 0 0 0 2 7 7 7 0 0 1-2-3 6 6 0 0 1 0-2 13 13 0 0 1 0-7c2-3 4-6 8-5 5 1 5 8 4 11z"/><path d="M136 34V1h8v33zm63 0h-9L175 9v25h-6V1h9l15 24-1-9V1h7zm75 0l-2-8h-12l-3 8h-7l11-34h9l12 34zm-4-14l-4-12V6l-5 14zm53 5a9 9 0 0 1-3 7 14 14 0 0 1-9 2 21 21 0 0 1-10-2v-6a39 39 0 0 0 6 2 17 17 0 0 0 4 0 6 6 0 0 0 4 0 3 3 0 0 0 1-3 3 3 0 0 0-1-2 6 6 0 0 0-1-1 40 40 0 0 0-4-3 20 20 0 0 1-5-2 10 10 0 0 1-2-3 9 9 0 0 1-1-4 9 9 0 0 1 3-7 13 13 0 0 1 8-3 19 19 0 0 1 5 1 34 34 0 0 1 5 1l-3 6a33 33 0 0 0-4-2 14 14 0 0 0-3 0 5 5 0 0 0-3 1 3 3 0 0 0-1 2 3 3 0 0 0 0 2 5 5 0 0 0 1 1 47 47 0 0 0 5 3 18 18 0 0 1 6 4 9 9 0 0 1 2 6zm43 0a9 9 0 0 1-3 7 14 14 0 0 1-9 2 21 21 0 0 1-10-2v-6a39 39 0 0 0 6 2 17 17 0 0 0 4 0 6 6 0 0 0 4 0 3 3 0 0 0 1-3 3 3 0 0 0-1-2 6 6 0 0 0-1-1 40 40 0 0 0-4-3 21 21 0 0 1-5-2 10 10 0 0 1-3-3 9 9 0 0 1 0-4 9 9 0 0 1 3-7 12 12 0 0 1 8-3 19 19 0 0 1 5 1 34 34 0 0 1 5 1l-3 6a33 33 0 0 0-4-2 14 14 0 0 0-3 0 5 5 0 0 0-3 1 3 3 0 0 0-2 2 3 3 0 0 0 1 2 5 5 0 0 0 1 1 47 47 0 0 0 5 3 18 18 0 0 1 6 4 9 9 0 0 1 2 6zm53-8q0 8-4 13t-11 4q-8 0-12-4t-4-13q0-8 4-13 4-4 12-4t11 4q4 5 4 13zm-24 0q0 6 2 9a7 7 0 0 0 7 2q8 0 8-11t-8-11a7 7 0 0 0-7 3q-2 3-2 8zm63-11a7 7 0 0 0-6 3 14 14 0 0 0-3 8q0 11 9 11a26 26 0 0 0 8-1v6a24 24 0 0 1-9 1q-7 0-11-4-4-5-4-13a21 21 0 0 1 2-9 14 14 0 0 1 5-6 16 16 0 0 1 9-2 22 22 0 0 1 10 2l-3 6a38 38 0 0 0-4-1 11 11 0 0 0-3-1zm33 28V1h7v33zm53 0l-3-8h-12l-2 8h-8l12-34h9l11 34zm-4-14l-4-12-1-2-4 14zm46 14h-7V6h-9V1h25v5h-9zm31 0V1h7v33zm63-17q0 8-4 13t-12 4q-7 0-12-4-4-5-4-13t4-13q5-4 12-4t12 4q4 5 4 13zm-24 0q0 6 2 9a7 7 0 0 0 6 2q9 0 9-11t-9-11a7 7 0 0 0-6 3q-2 3-2 8zm78 17h-9L710 9l1 9v16h-7V1h9l15 24-1-9V1h7zm87 0h-8l-4-18-1-4-1-3v4l-1 3-5 18h-8l-8-33h7l4 18 2 8v-4l1-4 5-18h7l4 18 1 4 1 4 1-4 1-4 4-18h7zm30 0V1h7v33zm46 0h-7V6h-9V1h25v5h-9zm59 0h-7V19h-14v15h-7V1h7v13h14V1h7z" fill="#fff"/></svg>